<?xml version="1.0" encoding="utf-8"?>
<!-- Generator: $$$/GeneralStr/196=Adobe Illustrator 27.6.0, SVG Export Plug-In . SVG Version: 6.00 Build 0)  -->
<svg version="1.1" id="Calque_1" xmlns="http://www.w3.org/2000/svg" xmlns:xlink="http://www.w3.org/1999/xlink" x="0px" y="0px"
	 viewBox="0 0 1085.7 275" style="enable-background:new 0 0 1085.7 275;" xml:space="preserve">
<style type="text/css">
	.st0{fill:#FF0350;}
</style>
<path class="st0" d="M384.2,150.8h29.7v51.3L384.2,150.8z M299.3,122.1V61.2l35.1,60.9H299.3z M169,204.1h30.7v-53.3h54v-28.7h-54
	V58.5H169V204.1z M79,204.1h30.7V87.2h44.1V58.5H34.9v28.7H79V204.1z M411,204.1h33.5v-8c0-37.7-22.8-73.9-66.7-73.9h-10.3
	l-23.2-40.2c-9.2-15.9-22-23.4-42.7-23.4h-32.9v145.6h30.7v-53.3H351l17.2,29.9C377.5,196.6,390.3,204.1,411,204.1"/>
<g>
	<path class="st0" d="M384.2,150.8h29.7v51.3L384.2,150.8z M299.3,122.1V61.2l35.1,60.9H299.3z M169,204.1h30.7v-53.3h54v-28.7h-54
		V58.5H169V204.1z M79,204.1h30.7V87.2h44.1V58.5H34.9v28.7H79V204.1z M411,204.1h33.5v-8c0-37.7-22.8-73.9-66.7-73.9h-10.3
		l-23.2-40.2c-9.2-15.9-22-23.4-42.7-23.4h-33v145.6h30.7v-53.3H351l17.2,29.9C377.5,196.6,390.3,204.1,411,204.1"/>
</g>
<g>
	<path class="st0" d="M522.8,58.5v6.6H511v31.4h-7.9V65.1h-11.8v-6.6H522.8z"/>
	<path class="st0" d="M548,85.2h-19.6c0.5,4.6,2.9,6.7,6,6.7c3,0,4.4-1.2,5.4-3.5h7.7c-1.8,5.8-6.6,8.7-13.1,8.7
		c-8.5,0-13.8-5.8-13.8-14.2s5.6-14.2,13.8-14.2c8.4,0,13.7,5.8,13.7,14.3C548.2,83.7,548.1,84.4,548,85.2z M528.5,80.1h11.9
		c-0.4-3.8-2.7-6.2-5.9-6.2C531.4,73.9,529.2,75.8,528.5,80.1z"/>
	<path class="st0" d="M552.8,82.9c0-8.5,5.8-14.2,14.1-14.2c7.2,0,12.1,4,13.3,10.4h-7.7c-0.7-2.8-2.4-5.2-5.6-5.2
		c-4,0-6.2,3.5-6.2,9c0,5.7,2.3,9,6.2,9c3.2,0,5-1.9,5.8-5h7.7c-1.3,6.7-6.7,10.2-13.5,10.2C558.5,97.1,552.8,91.4,552.8,82.9z"/>
	<path class="st0" d="M611.3,79.3v0.1v17.1h-7.7V81v-0.1c0-4.7-1.8-6.9-5-6.9c-3.1,0-5,2.2-5,7v15.5H586v-38h7.6v16.4
		c1.2-3.4,3.9-6.2,8.7-6.2C608.6,68.7,611.3,73.3,611.3,79.3z"/>
	<path class="st0" d="M643.9,79.3v0.1v17.1h-7.7V81v-0.1c0-4.7-1.8-6.9-5-6.9c-3.1,0-5,2.2-5,7v15.5h-7.7V69.3h7.6v5.5
		c1.2-3.4,3.9-6.2,8.7-6.2C641.2,68.7,643.9,73.3,643.9,79.3z"/>
	<path class="st0" d="M651.1,65.7v-7.2h7.9v7.2H651.1z M651.2,96.5V69.3h7.7v27.2H651.2z"/>
	<path class="st0" d="M665,82.9c0-8.5,5.8-14.2,14.1-14.2c7.2,0,12.1,4,13.3,10.4h-7.7c-0.7-2.8-2.4-5.2-5.6-5.2c-4,0-6.2,3.5-6.2,9
		c0,5.7,2.3,9,6.2,9c3.2,0,5-1.9,5.8-5h7.7c-1.3,6.7-6.7,10.2-13.5,10.2C670.6,97.1,665,91.4,665,82.9z"/>
	<path class="st0" d="M722.8,79.4L722.8,79.4v17.1h-7.5v-5.1c-1.6,3.2-4,5.7-9.1,5.7c-5.2,0-9.5-3.6-9.5-8.9c0-6.2,5.9-7.8,11.2-8.2
		l7.2-0.7v-0.3v-0.1c0-2.8-1.6-4.9-4.8-4.9c-3,0-4.6,1.8-4.9,3.7h-7.7c0.7-5.5,5.7-8.9,12.6-8.9C718.8,68.7,722.8,73.3,722.8,79.4z
		 M715.2,84.9v-1.1l-4.3,0.4c-3.1,0.4-6.3,0.9-6.3,4c0,2.7,2.1,4.3,4.7,4.3C713.1,92.5,715.2,89.2,715.2,84.9z"/>
	<path class="st0" d="M730.1,96.5v-38h7.7v38H730.1z"/>
	<path class="st0" d="M758.4,81.3L758.4,81.3V58.5h7.9v23.5V82c0,5.9,2.8,8.8,8,8.8s7.9-3,7.9-8.9V58.5h7.9v22.8
		c0,9.9-4.6,15.9-15.8,15.9C763.1,97.1,758.4,91.2,758.4,81.3z"/>
	<path class="st0" d="M822.8,79.3v0.1v17.1h-7.7V81v-0.1c0-4.7-1.8-6.9-5-6.9c-3.1,0-5,2.2-5,7v15.5h-7.7V69.3h7.6v5.5
		c1.2-3.4,3.9-6.2,8.7-6.2C820.1,68.7,822.8,73.3,822.8,79.3z"/>
	<path class="st0" d="M830,65.7v-7.2h7.9v7.2H830z M830.1,96.5V69.3h7.7v27.2H830.1z"/>
	<path class="st0" d="M864.5,69.3h7.6l-7.8,27.2h-14l-7.8-27.2h7.7l7.1,25.8L864.5,69.3z"/>
	<path class="st0" d="M902.4,85.2h-19.6c0.5,4.6,2.9,6.7,6,6.7c3,0,4.4-1.2,5.4-3.5h7.7c-1.8,5.8-6.6,8.7-13.1,8.7
		c-8.5,0-13.8-5.8-13.8-14.2s5.6-14.2,13.8-14.2c8.4,0,13.7,5.8,13.7,14.3C902.6,83.7,902.5,84.4,902.4,85.2z M882.9,80.1h11.9
		c-0.4-3.8-2.7-6.2-5.9-6.2C885.8,73.9,883.6,75.8,882.9,80.1z"/>
	<path class="st0" d="M916.3,76.4c1-4.3,3.8-7.7,9.1-7.7v7.5h-2c-4.8,0-7.1,1.6-7.1,6.2v14.1h-7.7V69.3h7.6V76.4z"/>
	<path class="st0" d="M928.9,88.3h7.7c0.6,2.8,2.9,3.6,5.3,3.6c3.3,0,5.2-1.1,5.2-2.8c0-1.7-1.1-2.5-4.8-3.3l-4.8-1
		c-5.2-1.1-8-3.5-8-7.6c0-5.2,5.3-8.4,11.8-8.4c6.2,0,11.3,2.6,12.5,7.8H946c-0.6-1.7-2.6-2.6-4.8-2.6c-2.4,0-4.5,0.9-4.5,2.6
		c0,1.5,1.5,2.2,4.4,2.8l4.8,1c5.7,1.2,8.4,3.7,8.4,8.1c0,5.6-5.5,8.7-12.8,8.7C934.8,97.1,929.8,94.2,928.9,88.3z"/>
	<path class="st0" d="M960.2,65.7v-7.2h7.9v7.2H960.2z M960.3,96.5V69.3h7.7v27.2H960.3z"/>
	<path class="st0" d="M991.7,90.9v5.6h-4.3c-5.3,0-9.4-2.7-9.4-8.1v-0.1V74.9h-5v-5.6h5v-6.4h7.7v6.4h6v5.6h-6v12.8v0.1
		c0,2.3,1.2,3,3.4,3H991.7z"/>
	<path class="st0" d="M1015.8,69.3h8.1l-10.7,37h-7.9l3.6-12.6h-6.5l-8-24.4h7.7l7.2,22.8L1015.8,69.3z"/>
	<path class="st0" d="M492.2,136.9c0-8.4,5.5-14.2,14.2-14.2c8.7,0,14.2,5.9,14.2,14.2c0,8.3-5.5,14.2-14.2,14.2
		C497.6,151.1,492.2,145.2,492.2,136.9z M512.7,136.9c0-5.6-2.2-9-6.3-9c-4.2,0-6.4,3.5-6.4,9c0,5.5,2.2,9,6.4,9
		C510.5,145.9,512.7,142.4,512.7,136.9z"/>
	<path class="st0" d="M539.6,117.9c-2.2,0-3.4,0.7-3.4,3.2v2.2h6.1v5.6h-6.1v21.6h-7.7v-21.6h-4.9v-5.6h4.9v-2.7
		c0-5.5,4-8.2,9.4-8.2h4.4v5.5H539.6z"/>
	<path class="st0" d="M586.3,150.5l-3.2-10.3h-16.6l-3.2,10.3h-8.3l12.6-38H582l12.6,38H586.3z M568.6,133.6H581l-6.2-19.6
		L568.6,133.6z"/>
	<path class="st0" d="M626.7,136.9c0,8.2-4.5,14.2-11.2,14.2c-4.2,0-7.5-2.5-9-6v15.3h-7.6v-37h7.6v6.1c1.2-3.5,4.2-6.7,9-6.7
		C622.2,122.7,626.7,128.8,626.7,136.9z M618.9,136.9c0-5.6-2.2-9-6.4-9c-4.1,0-6.3,3.5-6.3,9c0,5.5,2.2,9,6.3,9
		C616.7,145.9,618.9,142.4,618.9,136.9z"/>
	<path class="st0" d="M660.7,136.9c0,8.2-4.5,14.2-11.2,14.2c-4.2,0-7.5-2.5-9-6v15.3h-7.6v-37h7.6v6.1c1.2-3.5,4.2-6.7,9-6.7
		C656.2,122.7,660.7,128.8,660.7,136.9z M652.9,136.9c0-5.6-2.2-9-6.4-9c-4.1,0-6.3,3.5-6.3,9c0,5.5,2.2,9,6.3,9
		C650.7,145.9,652.9,142.4,652.9,136.9z"/>
	<path class="st0" d="M666.9,150.5v-38h7.7v38H666.9z"/>
	<path class="st0" d="M682.1,119.7v-7.2h7.9v7.2H682.1z M682.2,150.5v-27.2h7.7v27.2H682.2z"/>
	<path class="st0" d="M723.3,139.2h-19.6c0.5,4.6,2.9,6.7,6,6.7c3,0,4.4-1.2,5.4-3.5h7.7c-1.8,5.8-6.6,8.7-13.1,8.7
		c-8.5,0-13.8-5.8-13.8-14.2s5.6-14.2,13.8-14.2c8.4,0,13.7,5.8,13.7,14.3C723.5,137.7,723.4,138.4,723.3,139.2z M703.8,134.1h11.9
		c-0.4-3.8-2.7-6.2-5.9-6.2C706.7,127.9,704.5,129.8,703.8,134.1z"/>
	<path class="st0" d="M748.4,112.5h7.5v38h-7.5V145c-1.5,3.5-4.8,6.1-9,6.1c-6.7,0-11.2-6-11.2-14.2s4.5-14.2,11.2-14.2
		c4.8,0,7.9,3.2,9,6.8V112.5z M748.7,136.9c0-5.6-2.2-9-6.4-9s-6.3,3.5-6.3,9c0,5.5,2.2,9,6.3,9S748.7,142.4,748.7,136.9z"/>
	<path class="st0" d="M774.6,138.8h8.3c0.5,4.1,3.8,6.1,8,6.1c5.3,0,8.4-2,8.4-4.9c0-3-2.4-4-7.6-5.1l-5.4-1.2
		c-6.3-1.4-10.5-4.6-10.5-10.6c0-6.6,6.4-11.2,14.7-11.2c9.4,0,14.6,4.4,15.7,10.8h-8.2c-1-3.2-3.7-4.5-7.5-4.5
		c-3.8,0-6.9,1.6-6.9,4.2c0,2.7,2.1,3.6,7.3,4.8l5.4,1.2c7.2,1.6,10.9,4.7,10.9,10.8c0,7.5-6.6,12-16.5,12
		C781.9,151.1,775.6,146.5,774.6,138.8z"/>
	<path class="st0" d="M811.8,136.9c0-8.5,5.8-14.2,14.1-14.2c7.2,0,12.1,4,13.3,10.4h-7.7c-0.7-2.8-2.4-5.2-5.6-5.2
		c-4,0-6.2,3.5-6.2,9c0,5.7,2.3,9,6.2,9c3.2,0,5-1.9,5.8-5h7.7c-1.3,6.7-6.7,10.2-13.5,10.2C817.4,151.1,811.8,145.4,811.8,136.9z"
		/>
	<path class="st0" d="M844.8,119.7v-7.2h7.9v7.2H844.8z M844.9,150.5v-27.2h7.7v27.2H844.9z"/>
	<path class="st0" d="M886.1,139.2h-19.6c0.5,4.6,2.9,6.7,6,6.7c3,0,4.4-1.2,5.4-3.5h7.7c-1.8,5.8-6.6,8.7-13.1,8.7
		c-8.5,0-13.8-5.8-13.8-14.2s5.6-14.2,13.8-14.2c8.4,0,13.7,5.8,13.7,14.3C886.2,137.7,886.2,138.4,886.1,139.2z M866.6,134.1h11.9
		c-0.4-3.8-2.7-6.2-5.9-6.2C869.5,127.9,867.2,129.8,866.6,134.1z"/>
	<path class="st0" d="M917.6,133.3v0.1v17.1H910V135v-0.1c0-4.7-1.8-6.9-5-6.9c-3.1,0-5,2.2-5,7v15.5h-7.7v-27.2h7.6v5.5
		c1.2-3.4,3.9-6.2,8.7-6.2C914.9,122.7,917.6,127.3,917.6,133.3z"/>
	<path class="st0" d="M923.5,136.9c0-8.5,5.8-14.2,14.1-14.2c7.2,0,12.1,4,13.3,10.4h-7.7c-0.7-2.8-2.4-5.2-5.6-5.2
		c-4,0-6.2,3.5-6.2,9c0,5.7,2.3,9,6.2,9c3.2,0,5-1.9,5.8-5h7.7c-1.3,6.7-6.7,10.2-13.5,10.2C929.1,151.1,923.5,145.4,923.5,136.9z"
		/>
	<path class="st0" d="M982.5,139.2H963c0.5,4.6,2.9,6.7,6,6.7c3,0,4.4-1.2,5.4-3.5h7.7c-1.8,5.8-6.6,8.7-13.1,8.7
		c-8.5,0-13.8-5.8-13.8-14.2s5.6-14.2,13.8-14.2c8.4,0,13.7,5.8,13.7,14.3C982.7,137.7,982.6,138.4,982.5,139.2z M963,134.1h11.9
		c-0.4-3.8-2.7-6.2-5.9-6.2C965.9,127.9,963.7,129.8,963,134.1z"/>
	<path class="st0" d="M987.1,142.3h7.7c0.6,2.8,2.9,3.6,5.3,3.6c3.3,0,5.2-1.1,5.2-2.8c0-1.7-1.1-2.5-4.8-3.3l-4.8-1
		c-5.2-1.1-8-3.5-8-7.6c0-5.2,5.3-8.4,11.8-8.4c6.2,0,11.3,2.6,12.5,7.8h-7.7c-0.6-1.7-2.6-2.6-4.8-2.6c-2.4,0-4.5,0.9-4.5,2.6
		c0,1.5,1.5,2.2,4.4,2.8l4.8,1c5.7,1.2,8.4,3.7,8.4,8.1c0,5.6-5.5,8.7-12.8,8.7C993,151.1,988,148.2,987.1,142.3z"/>
	<path class="st0" d="M521.8,204.5l-3.2-10.3h-16.6l-3.2,10.3h-8.3l12.6-38h14.5l12.6,38H521.8z M504,187.6h12.4l-6.2-19.6
		L504,187.6z"/>
	<path class="st0" d="M551.4,177.3h7.7v27.2h-7.6v-5.4c-1.2,3.2-3.8,6-8.6,6c-6.3,0-9-4.5-9-10.5v-0.1v-17.1h7.7v15.5v0.1
		c0,4.7,1.8,6.9,4.9,6.9c3.2,0,4.9-2.3,4.9-7V177.3z"/>
	<path class="st0" d="M585.6,177.3h7.6V204c0,8.2-7.1,10.9-13.4,10.9c-6.4,0-12.5-2.8-13.2-9h7.7c0.6,2.5,2.8,3.8,5.5,3.8
		c3.2,0,5.8-1.8,5.8-5.5v-5.8c-1.5,3.4-4.8,5.9-9,5.9c-6.7,0-11.2-5.6-11.2-13.8s4.5-13.8,11.2-13.8c4.8,0,7.8,3.1,9,6.6V177.3z
		 M585.9,190.5c0-5.4-2.2-8.6-6.4-8.6c-4.1,0-6.3,3.2-6.3,8.6s2.2,8.6,6.3,8.6C583.6,199,585.9,195.8,585.9,190.5z"/>
	<path class="st0" d="M598.9,196.3h7.7c0.6,2.8,2.9,3.6,5.3,3.6c3.3,0,5.2-1.1,5.2-2.8c0-1.7-1.1-2.5-4.8-3.3l-4.8-1
		c-5.2-1.1-8-3.5-8-7.6c0-5.2,5.3-8.4,11.8-8.4c6.2,0,11.3,2.6,12.5,7.8h-7.7c-0.6-1.7-2.6-2.6-4.8-2.6c-2.4,0-4.5,0.9-4.5,2.6
		c0,1.5,1.5,2.2,4.4,2.8l4.8,1c5.7,1.2,8.4,3.7,8.4,8.1c0,5.6-5.5,8.7-12.8,8.7C604.9,205.1,599.9,202.2,598.9,196.3z"/>
	<path class="st0" d="M658.1,190.9c0,8.2-4.5,14.2-11.2,14.2c-4.2,0-7.5-2.5-9-6v5.5h-7.6v-38h7.6v17c1.2-3.5,4.2-6.7,9-6.7
		C653.6,176.7,658.1,182.8,658.1,190.9z M650.3,190.9c0-5.6-2.2-9-6.4-9c-4.1,0-6.3,3.5-6.3,9c0,5.5,2.2,9,6.3,9
		C648.1,199.9,650.3,196.4,650.3,190.9z"/>
	<path class="st0" d="M681.5,177.3h7.7v27.2h-7.6v-5.4c-1.2,3.2-3.8,6-8.6,6c-6.3,0-9-4.5-9-10.5v-0.1v-17.1h7.7v15.5v0.1
		c0,4.7,1.8,6.9,4.9,6.9c3.2,0,4.9-2.3,4.9-7V177.3z"/>
	<path class="st0" d="M704.3,184.4c1-4.3,3.8-7.7,9.1-7.7v7.5h-2c-4.8,0-7.1,1.6-7.1,6.2v14.1h-7.7v-27.2h7.6V184.4z"/>
	<path class="st0" d="M737.1,177.3h7.6V204c0,8.2-7.1,10.9-13.4,10.9c-6.4,0-12.5-2.8-13.2-9h7.7c0.6,2.5,2.8,3.8,5.5,3.8
		c3.2,0,5.8-1.8,5.8-5.5v-5.8c-1.5,3.4-4.8,5.9-9,5.9c-6.7,0-11.2-5.6-11.2-13.8s4.5-13.8,11.2-13.8c4.8,0,7.8,3.1,9,6.6V177.3z
		 M737.4,190.5c0-5.4-2.2-8.6-6.4-8.6c-4.1,0-6.3,3.2-6.3,8.6s2.2,8.6,6.3,8.6C735.2,199,737.4,195.8,737.4,190.5z"/>
</g>
</svg>
